<?xml version="1.0" encoding="utf-8"?>
<!-- Generator: Adobe Illustrator 25.2.0, SVG Export Plug-In . SVG Version: 6.00 Build 0)  -->
<svg version="1.1" id="Layer_1" xmlns="http://www.w3.org/2000/svg" xmlns:xlink="http://www.w3.org/1999/xlink" x="0px" y="0px"
	 viewBox="0 0 450.95 203.79" style="enable-background:new 0 0 450.95 203.79;" xml:space="preserve">
<path d="M279.1,106.23c2.45-1.2,4.77-2.65,6.89-4.33c4.28-3.29,7.43-8,8.49-13.28c1.09-5.25,0.04-10.87-2.7-15.55
	c-0.31-0.6-0.65-1.19-1.05-1.74c-0.38-0.56-0.75-1.14-1.15-1.69c-0.88-1.05-1.66-2.17-2.65-3.12c-1.83-2.03-3.94-3.84-6.06-5.6
	c-4.22-3.43-13.49-8.19-13.43-7.79l0.02-0.04c4.69,2.41,9.02,5.41,13.08,8.74c4.01,3.35,7.92,7.02,10.6,11.65
	c1.32,2.3,2.32,4.83,2.7,7.5c0.39,2.66,0.12,5.41-0.73,7.95c-1.72,5.1-5.34,9.36-9.65,12.43c-3.8,2.73-8.05,4.74-12.46,6.23"/>
<path d="M51.88,134.61c0.81-0.99,1.46-2.13,1.95-3.43c0.49-1.3,0.74-2.76,0.74-4.37c0-1.79-0.37-3.4-1.11-4.81
	c-0.74-1.41-1.73-2.64-2.96-3.67c-1.23-1.03-2.64-1.85-4.21-2.46c-1.57-0.6-3.16-1-4.78-1.18v-0.27c3.05-0.63,5.53-1.85,7.44-3.67
	c1.91-1.82,2.86-4.21,2.86-7.17c0-2.69-0.74-4.91-2.22-6.66c-1.48-1.75-3.36-3.05-5.65-3.9c-1.44-0.54-2.93-0.91-4.47-1.11
	c-1.55-0.2-3.17-0.3-4.88-0.3H11.91v0.67c1.21,0.13,2.15,0.32,2.83,0.57c0.67,0.25,1.35,0.73,2.02,1.45
	c0.27,0.27,0.48,0.71,0.64,1.31c0.16,0.61,0.29,1.29,0.4,2.05c0.11,0.76,0.19,1.56,0.24,2.39c0.04,0.83,0.07,1.65,0.07,2.46
	c0,1.35,0.01,2.53,0.03,3.57c0.02,1.03,0.03,2.04,0.03,3.03c0,0.94,0,1.93,0,2.96c0,1.03,0,2.22,0,3.57c0,1.21,0,2.51,0,3.9
	c0,1.35-0.01,2.66-0.03,3.94c-0.02,1.28-0.05,2.46-0.07,3.53c-0.02,1.08-0.03,1.93-0.03,2.56c0,0.72-0.02,1.45-0.07,2.19
	c-0.05,0.74-0.12,1.45-0.23,2.12c-0.11,0.67-0.24,1.27-0.37,1.78c-0.14,0.52-0.31,0.91-0.54,1.18c-0.63,0.72-1.45,1.28-2.46,1.68
	c-1.01,0.4-2.08,0.69-3.2,0.87v0.67h23.21c1.97,0,4.01-0.07,6.12-0.2c2.11-0.13,4.01-0.51,5.72-1.14c0.99-0.36,1.97-0.89,2.96-1.58
	C50.17,136.44,51.07,135.6,51.88,134.61z M25.5,112.61c0-1.21,0-2.65,0-4.31c0-1.7,0.01-3.5,0.03-5.38c0.02-1.88,0.06-3.61,0.1-5.18
	c0.05-0.81,0.08-1.46,0.1-1.95c0.02-0.49,0.04-0.91,0.07-1.25c0.02-0.34,0.06-0.62,0.1-0.84c0.04-0.22,0.09-0.47,0.14-0.74
	c0.4-0.13,0.99-0.24,1.75-0.34c0.76-0.09,1.61-0.14,2.56-0.14c3.14,0,5.72,0.45,7.74,1.35c1.7,0.76,3.13,2.02,4.27,3.77
	c1.14,1.75,1.71,3.75,1.71,5.99c0,3.05-1.04,5.61-3.13,7.67c-2.09,2.06-5.15,3.21-9.18,3.43c-0.63,0.05-1.46,0.07-2.49,0.07
	c-1.03,0-2.29,0-3.77,0C25.5,114.53,25.5,113.82,25.5,112.61z M45.15,133.43c-1.03,1.64-2.49,2.95-4.37,3.94
	c-1.44,0.76-2.92,1.24-4.44,1.41c-1.53,0.18-2.94,0.27-4.24,0.27c-1.53,0-2.69-0.17-3.5-0.5c-0.81-0.34-1.41-0.75-1.82-1.25
	c-0.54-0.72-0.87-1.63-0.98-2.73c-0.11-1.1-0.19-2.5-0.24-4.21c0-0.76-0.01-1.67-0.03-2.73c-0.02-1.05-0.03-2.21-0.03-3.47
	c0-1.3,0-2.67,0-4.1c0-1.43,0-2.87,0-4.31h6.53c1.3,0,2.43,0.06,3.4,0.17c0.96,0.11,1.94,0.32,2.93,0.64
	c1.21,0.4,2.32,0.95,3.33,1.65c1.01,0.7,1.88,1.53,2.62,2.49c0.74,0.97,1.32,2.02,1.75,3.16c0.43,1.14,0.64,2.37,0.64,3.67
	C46.7,129.83,46.18,131.79,45.15,133.43z"/>
<path d="M117.05,138.58c3.07-1.21,5.76-2.94,8.07-5.18s4.14-4.89,5.48-7.94c1.35-3.05,2.02-6.37,2.02-9.96
	c0-3.23-0.56-6.32-1.68-9.28c-1.12-2.96-2.74-5.57-4.84-7.84c-2.11-2.27-4.68-4.07-7.7-5.42c-3.03-1.34-6.45-2.02-10.26-2.02
	c-3.5,0-6.83,0.57-9.99,1.72c-3.16,1.14-5.92,2.78-8.28,4.91c-2.36,2.13-4.23,4.73-5.62,7.8c-1.39,3.07-2.09,6.54-2.09,10.4
	c0,3.63,0.66,6.96,1.99,9.99c1.32,3.03,3.13,5.63,5.42,7.8c2.29,2.18,4.96,3.86,8.01,5.05c3.05,1.19,6.28,1.78,9.69,1.78
	C110.71,140.4,113.97,139.79,117.05,138.58z M94.77,132.25c-1.41-2.15-2.48-4.64-3.2-7.47c-0.72-2.83-1.08-5.76-1.08-8.81
	c0-2.92,0.32-5.8,0.98-8.65c0.65-2.85,1.66-5.39,3.03-7.64c1.37-2.24,3.12-4.07,5.25-5.48c2.13-1.41,4.65-2.12,7.57-2.12
	c2.87,0,5.36,0.71,7.47,2.12c2.11,1.41,3.87,3.25,5.28,5.52s2.47,4.79,3.16,7.57c0.69,2.78,1.04,5.54,1.04,8.28
	c0,2.83-0.35,5.65-1.04,8.48c-0.7,2.83-1.74,5.37-3.13,7.64c-1.39,2.27-3.13,4.12-5.21,5.55c-2.09,1.44-4.54,2.15-7.37,2.15
	s-5.31-0.65-7.44-1.95C97.96,136.13,96.19,134.41,94.77,132.25z"/>
<path d="M356.09,132.19c-1.08-1.52-2.3-3.27-3.67-5.25c-1.37-1.97-2.64-3.81-3.8-5.52c-0.67-0.94-1.37-1.79-2.09-2.56
	c-0.72-0.76-1.46-1.35-2.22-1.75v-0.2c1.48-0.49,2.89-1.1,4.24-1.82c1.35-0.72,2.52-1.58,3.53-2.59c1.01-1.01,1.82-2.18,2.42-3.5
	c0.61-1.32,0.91-2.82,0.91-4.47c0-2.69-0.61-4.92-1.82-6.69c-1.21-1.77-2.8-3.17-4.78-4.21c-1.93-1.03-4.06-1.64-6.39-1.82
	c-2.33-0.18-5-0.27-8.01-0.27c-1.21,0-2.78,0-4.71,0c-1.93,0-3.86,0.01-5.79,0.03c-1.93,0.02-3.66,0.03-5.18,0.03
	c-1.48,0-2.4,0-2.76,0v0.67c1.21,0.18,2.23,0.39,3.06,0.64c0.83,0.25,1.58,0.73,2.25,1.45c0.27,0.27,0.48,0.71,0.64,1.31
	c0.16,0.61,0.27,1.28,0.34,2.02c0.07,0.74,0.11,1.53,0.14,2.36c0.02,0.83,0.03,1.65,0.03,2.46v13.12c0,1.21,0,2.51,0,3.9
	c0,1.35-0.01,2.66-0.03,3.94c-0.02,1.28-0.05,2.46-0.07,3.53c-0.02,1.08-0.03,1.93-0.03,2.56c0,0.72-0.02,1.46-0.07,2.22
	c-0.05,0.76-0.1,1.48-0.17,2.15c-0.07,0.67-0.17,1.28-0.3,1.82c-0.14,0.54-0.31,0.94-0.54,1.21c-0.58,0.72-1.39,1.26-2.42,1.62
	c-1.03,0.36-2.11,0.63-3.23,0.81v0.67h21.53v-0.67c-1.84-0.09-3.27-0.44-4.31-1.04c-1.03-0.61-1.73-1.2-2.09-1.78
	c-0.45-0.67-0.7-1.53-0.74-2.56c-0.05-1.03-0.09-2.27-0.13-3.7c-0.05-1.48-0.07-3.3-0.07-5.45s0-4.69,0-7.6
	c0.63,0.05,1.14,0.07,1.55,0.07c0.45,0,1.1,0.09,1.95,0.27c1.17,0.23,2.28,0.79,3.33,1.68c1.05,0.9,2.03,1.86,2.93,2.89
	c1.08,1.26,2.01,2.39,2.79,3.4c0.78,1.01,1.51,2.01,2.19,2.99c0.67,0.99,1.33,1.99,1.99,2.99c0.65,1.01,1.4,2.14,2.25,3.4
	c0.72,1.03,1.25,1.81,1.58,2.32s0.62,0.91,0.84,1.18c0.22,0.27,0.43,0.51,0.61,0.71c0.18,0.2,0.47,0.51,0.88,0.91h13.79v-0.67
	c-2.11-0.31-3.95-1.01-5.52-2.09C359.36,136.22,357.74,134.52,356.09,132.19z M339.53,115.16c-1.48,0.5-3.02,0.82-4.61,0.98
	c-1.59,0.16-3.31,0.24-5.15,0.24c0-0.36,0-1.21,0-2.56c0-1.39,0-3,0-4.84s0.01-3.75,0.03-5.72c0.02-1.97,0.06-3.75,0.1-5.32
	c0.04-1.03,0.08-1.83,0.1-2.39c0.02-0.56,0.05-1,0.07-1.31c0.02-0.31,0.06-0.57,0.1-0.77c0.04-0.2,0.09-0.44,0.13-0.71
	c0.31-0.04,0.76-0.09,1.35-0.13c0.58-0.05,1.35-0.07,2.29-0.07c1.3,0,2.54,0.11,3.73,0.34c1.19,0.23,2.32,0.58,3.4,1.08
	c2.15,1.03,3.79,2.42,4.91,4.17c1.12,1.75,1.68,3.75,1.68,5.99c0,1.21-0.16,2.38-0.47,3.5c-0.31,1.12-0.8,2.16-1.45,3.13
	c-0.65,0.96-1.49,1.83-2.52,2.59C342.2,114.11,340.97,114.71,339.53,115.16z"/>
<path d="M439.32,90.94c-1.03,0.31-2.03,0.57-2.99,0.77c-0.96,0.2-2.19,0.33-3.67,0.37c-1.71,0-3.23,0.01-4.58,0.03
	c-1.35,0.02-2.65,0.05-3.9,0.07c-1.26,0.02-2.56,0.03-3.9,0.03c-1.3,0-2.78,0-4.44,0c-1.66,0-3.16,0-4.51,0c-1.3,0-2.58,0-3.84,0
	s-2.56-0.01-3.9-0.03c-1.35-0.02-2.87-0.06-4.58-0.1c-1.66-0.04-2.93-0.13-3.8-0.27c-0.87-0.13-1.83-0.31-2.86-0.54l-2.02,12.78
	l0.61,0.2c0.27-0.81,0.64-1.64,1.11-2.49c0.47-0.85,0.96-1.65,1.48-2.39s1.01-1.42,1.48-2.05c0.47-0.63,0.88-1.1,1.24-1.41
	c0.94-0.9,1.96-1.53,3.06-1.88c1.1-0.36,2.5-0.56,4.21-0.61c0.85,0,1.6-0.01,2.25-0.03c0.65-0.02,1.27-0.03,1.85-0.03
	c0.63,0,1.28,0,1.95,0c0.72,0,1.55,0,2.49,0v22.27c0,1.21,0,2.49,0,3.84s-0.01,2.65-0.03,3.9c-0.02,1.26-0.05,2.4-0.07,3.43
	c-0.02,1.03-0.03,1.86-0.03,2.49c0,0.72-0.01,1.46-0.03,2.22c-0.02,0.76-0.07,1.47-0.13,2.12c-0.07,0.65-0.16,1.23-0.27,1.75
	c-0.11,0.52-0.28,0.89-0.5,1.11c-1.03,1.17-2.09,1.91-3.16,2.22c-1.08,0.31-2.2,0.54-3.36,0.67v0.67h21.87v-0.67
	c-0.99-0.18-2.1-0.45-3.33-0.81c-1.23-0.36-2.19-1.03-2.86-2.02c-0.36-0.49-0.57-1.33-0.64-2.52c-0.07-1.19-0.1-2.43-0.1-3.73
	v-14.94c0-1.39,0-3.1,0-5.11c0-2.06,0-4.15,0-6.26c0-2.11,0.01-4.13,0.03-6.06c0.02-1.93,0.03-3.45,0.03-4.58c0.99,0,1.82,0,2.49,0
	c0.72,0,1.37,0,1.95,0c0.63,0,1.25,0.01,1.88,0.03c0.63,0.02,1.37,0.03,2.22,0.03c1.7,0.05,3.11,0.21,4.21,0.5
	c1.1,0.29,2.12,0.89,3.06,1.78c0.36,0.31,0.79,0.8,1.28,1.45c0.49,0.65,1,1.36,1.51,2.12c0.52,0.76,1.02,1.58,1.51,2.46
	c0.49,0.87,0.92,1.72,1.28,2.52l0.61-0.2L439.32,90.94z"/>
<path d="M38.11,186.36c-0.75,0.97-1.51,1.78-2.31,2.45c-0.79,0.67-1.62,1.18-2.47,1.54c-0.86,0.36-1.79,0.61-2.8,0.74
	c-0.92,0.13-1.8,0.21-2.64,0.24c-0.84,0.03-1.53,0.05-2.07,0.05c-1.27,0-2.44-0.1-3.52-0.28c-1.08-0.19-1.76-0.51-2.04-0.95
	s-0.47-1.12-0.55-2.02c-0.08-0.9-0.13-1.86-0.17-2.87c0-0.32-0.01-0.71-0.02-1.17c-0.02-0.46-0.02-0.94-0.02-1.45
	c0-0.54,0-1.08,0-1.62s0-1.01,0-1.43c0-0.92,0-1.81,0-2.66c0-0.85,0.03-1.5,0.1-1.95c0.51,0,0.92,0,1.24,0c0.35,0,0.67,0,0.95,0
	c0.32,0,0.63,0.01,0.95,0.02c0.32,0.02,0.71,0.04,1.19,0.07c0.95,0.06,1.78,0.24,2.49,0.52c0.71,0.28,1.32,0.65,1.83,1.09
	c0.57,0.54,1.12,1.35,1.64,2.42c0.52,1.08,0.91,2.12,1.16,3.14h0.57v-14.97h-0.57c-0.19,0.89-0.4,1.69-0.64,2.4
	c-0.24,0.71-0.56,1.34-0.95,1.88c-0.4,0.54-0.91,1-1.54,1.38c-0.63,0.38-1.43,0.68-2.38,0.9c-0.41,0.1-0.93,0.17-1.54,0.21
	c-0.62,0.05-1.24,0.09-1.85,0.12c-0.62,0.03-1.16,0.05-1.64,0.05c-0.48,0-0.79,0-0.95,0c0-0.1,0-0.27,0-0.52
	c0-0.29-0.01-0.69-0.02-1.21c-0.02-0.52-0.02-1.2-0.02-2.02s0-1.84,0-3.04c0-2.09,0.02-3.93,0.07-5.51c0.05-1.58,0.1-2.63,0.17-3.14
	c0.32-0.06,0.83-0.12,1.54-0.17c0.71-0.05,1.4-0.07,2.07-0.07c2.09,0,3.87,0.1,5.32,0.28c1.46,0.19,2.45,0.41,2.99,0.67
	c2.25,1.11,4.66,3.26,7.22,6.46l0.48-0.24l-3.23-7.84H9.9v0.48c0.86,0.13,1.55,0.26,2.09,0.4c0.54,0.14,1.05,0.47,1.52,0.97
	c0.19,0.19,0.34,0.5,0.45,0.93c0.11,0.43,0.19,0.91,0.24,1.45c0.05,0.54,0.08,1.11,0.1,1.71c0.02,0.6,0.02,1.19,0.02,1.76v9.27
	c0,0.86,0,1.78,0,2.76c0,0.95-0.01,1.88-0.02,2.78c-0.02,0.9-0.03,1.74-0.05,2.49c-0.02,0.76-0.02,1.36-0.02,1.81
	c0,0.51-0.02,1.02-0.05,1.54c-0.03,0.52-0.09,1.02-0.17,1.5c-0.08,0.47-0.17,0.89-0.26,1.26c-0.1,0.36-0.22,0.64-0.38,0.83
	c-0.44,0.51-1.01,0.9-1.69,1.19c-0.68,0.28-1.42,0.49-2.21,0.62v0.48h29.09l2.38-9.08l-0.52-0.14
	C39.62,184.23,38.85,185.4,38.11,186.36z"/>
<path d="M77.34,158.35c1.52,0.22,2.69,0.61,3.49,1.16c0.81,0.55,1.37,1.28,1.69,2.16c0.25,0.67,0.4,1.58,0.43,2.73
	c0.03,1.16,0.05,2.37,0.05,3.64v16.16l-22.53-26.33h-9.65v0.48c0.51,0.06,1.04,0.17,1.59,0.31c0.55,0.14,1.07,0.38,1.54,0.71
	c0.47,0.33,0.89,0.79,1.24,1.38c0.35,0.59,0.57,1.34,0.67,2.26c0.03,0.92,0.05,1.7,0.05,2.33c0,0.6,0,1.19,0,1.76
	c0,0.57,0,1.16,0,1.76c0,0.6,0,1.36,0,2.28c0,2.12-0.02,4.11-0.05,5.96c-0.03,1.85-0.08,3.46-0.14,4.82
	c-0.06,1.81-0.16,3.36-0.28,4.66c-0.13,1.3-0.41,2.28-0.86,2.95c-0.44,0.7-1.05,1.2-1.81,1.5c-0.76,0.3-1.52,0.5-2.28,0.59v0.48
	h11.69v-0.48c-1.3-0.16-2.32-0.42-3.06-0.78c-0.75-0.36-1.29-0.91-1.64-1.64c-0.32-0.63-0.52-1.6-0.59-2.9
	c-0.08-1.3-0.12-2.76-0.12-4.37v-20.06c2.15,2.41,4.2,4.74,6.13,6.99c1.93,2.25,3.91,4.55,5.92,6.91c2.01,2.36,4.13,4.84,6.34,7.44
	c2.22,2.6,4.67,5.45,7.37,8.56c0.32,0.32,0.6,0.48,0.86,0.48c0.16,0,0.28-0.04,0.36-0.12c0.08-0.08,0.12-0.18,0.12-0.31
	c0-0.92,0-1.95,0-3.09c0-1.14-0.01-2.29-0.02-3.45c-0.02-1.16-0.02-2.29-0.02-3.4c0-1.14,0-2.15,0-3.04c0-2.12,0.02-4.11,0.07-5.96
	c0.05-1.85,0.1-3.46,0.17-4.82c0.06-1.46,0.13-2.83,0.19-4.11c0.06-1.28,0.21-2.16,0.43-2.64c0.38-0.92,0.93-1.6,1.64-2.04
	c0.71-0.44,1.66-0.74,2.83-0.9v-0.48H77.34V158.35z"/>
<path d="M130.12,157.94c-0.68,0.14-1.54,0.23-2.59,0.26c-1.21,0-2.28,0.01-3.23,0.02c-0.95,0.02-1.87,0.03-2.76,0.05
	c-0.89,0.02-1.81,0.02-2.76,0.02c-0.92,0-1.97,0-3.14,0c-1.17,0-2.23,0-3.18,0c-0.92,0-1.82,0-2.71,0c-0.89,0-1.8-0.01-2.76-0.02
	c-0.95-0.02-2.03-0.04-3.23-0.07c-1.17-0.03-2.07-0.1-2.69-0.19c-0.62-0.1-1.29-0.22-2.02-0.38l-1.43,9.03l0.43,0.14
	c0.19-0.57,0.45-1.16,0.78-1.76c0.33-0.6,0.68-1.16,1.05-1.69c0.36-0.52,0.71-1.01,1.05-1.45c0.33-0.44,0.63-0.78,0.88-1
	c0.67-0.63,1.39-1.08,2.16-1.33c0.78-0.25,1.77-0.4,2.97-0.43c0.6,0,1.13-0.01,1.59-0.02c0.46-0.02,0.89-0.02,1.31-0.02
	c0.44,0,0.9,0,1.38,0c0.51,0,1.09,0,1.76,0v15.73c0,0.86,0,1.76,0,2.71c0,0.95-0.01,1.87-0.02,2.76c-0.02,0.89-0.03,1.7-0.05,2.42
	c-0.02,0.73-0.02,1.31-0.02,1.76c0,0.51-0.01,1.03-0.02,1.57c-0.02,0.54-0.05,1.04-0.1,1.5c-0.05,0.46-0.11,0.87-0.19,1.24
	c-0.08,0.36-0.2,0.63-0.36,0.78c-0.73,0.83-1.47,1.35-2.23,1.57s-1.55,0.38-2.38,0.47v0.48h15.44v-0.48
	c-0.7-0.13-1.48-0.32-2.35-0.57c-0.87-0.25-1.54-0.73-2.02-1.43c-0.25-0.35-0.4-0.94-0.45-1.78c-0.05-0.84-0.07-1.72-0.07-2.64
	v-10.55c0-0.98,0-2.19,0-3.61c0-1.46,0-2.93,0-4.42c0-1.49,0.01-2.91,0.02-4.28c0.02-1.36,0.02-2.44,0.02-3.23c0.7,0,1.28,0,1.76,0
	c0.51,0,0.97,0,1.38,0c0.44,0,0.89,0.01,1.33,0.02c0.44,0.02,0.97,0.02,1.57,0.02c1.2,0.03,2.19,0.15,2.97,0.36
	c0.78,0.21,1.5,0.63,2.16,1.26c0.25,0.22,0.55,0.56,0.9,1.02c0.35,0.46,0.7,0.96,1.07,1.5c0.36,0.54,0.72,1.12,1.07,1.74
	c0.35,0.62,0.65,1.21,0.9,1.78l0.43-0.14l-1.52-9.27C131.5,157.62,130.8,157.8,130.12,157.94z"/>
<path d="M171.32,186.36c-0.75,0.97-1.51,1.78-2.31,2.45c-0.79,0.67-1.62,1.18-2.47,1.54c-0.86,0.36-1.79,0.61-2.8,0.74
	c-0.92,0.13-1.8,0.21-2.64,0.24c-0.84,0.03-1.53,0.05-2.07,0.05c-1.27,0-2.44-0.1-3.52-0.28c-1.08-0.19-1.76-0.51-2.04-0.95
	s-0.47-1.12-0.55-2.02c-0.08-0.9-0.13-1.86-0.17-2.87c0-0.32-0.01-0.71-0.02-1.17c-0.02-0.46-0.02-0.94-0.02-1.45
	c0-0.54,0-1.08,0-1.62s0-1.01,0-1.43c0-0.92,0-1.81,0-2.66c0-0.85,0.03-1.5,0.1-1.95c0.51,0,0.92,0,1.24,0c0.35,0,0.67,0,0.95,0
	c0.32,0,0.63,0.01,0.95,0.02c0.32,0.02,0.71,0.04,1.19,0.07c0.95,0.06,1.78,0.24,2.49,0.52s1.32,0.65,1.83,1.09
	c0.57,0.54,1.12,1.35,1.64,2.42c0.52,1.08,0.91,2.12,1.16,3.14h0.57v-14.97h-0.57c-0.19,0.89-0.4,1.69-0.64,2.4
	c-0.24,0.71-0.56,1.34-0.95,1.88c-0.4,0.54-0.91,1-1.54,1.38c-0.63,0.38-1.43,0.68-2.38,0.9c-0.41,0.1-0.93,0.17-1.54,0.21
	c-0.62,0.05-1.24,0.09-1.85,0.12c-0.62,0.03-1.16,0.05-1.64,0.05c-0.48,0-0.79,0-0.95,0c0-0.1,0-0.27,0-0.52
	c0-0.29-0.01-0.69-0.02-1.21c-0.02-0.52-0.02-1.2-0.02-2.02s0-1.84,0-3.04c0-2.09,0.02-3.93,0.07-5.51c0.05-1.58,0.1-2.63,0.17-3.14
	c0.32-0.06,0.83-0.12,1.54-0.17c0.71-0.05,1.4-0.07,2.07-0.07c2.09,0,3.87,0.1,5.32,0.28c1.46,0.19,2.45,0.41,2.99,0.67
	c2.25,1.11,4.66,3.26,7.22,6.46l0.48-0.24l-3.23-7.84h-26.23v0.48c0.86,0.13,1.55,0.26,2.09,0.4c0.54,0.14,1.05,0.47,1.52,0.97
	c0.19,0.19,0.34,0.5,0.45,0.93c0.11,0.43,0.19,0.91,0.24,1.45c0.05,0.54,0.08,1.11,0.1,1.71c0.02,0.6,0.02,1.19,0.02,1.76v9.27
	c0,0.86,0,1.78,0,2.76c0,0.95-0.01,1.88-0.02,2.78c-0.02,0.9-0.03,1.74-0.05,2.49c-0.02,0.76-0.02,1.36-0.02,1.81
	c0,0.51-0.02,1.02-0.05,1.54c-0.03,0.52-0.09,1.02-0.17,1.5c-0.08,0.47-0.17,0.89-0.26,1.26c-0.1,0.36-0.22,0.64-0.38,0.83
	c-0.44,0.51-1.01,0.9-1.69,1.19c-0.68,0.28-1.42,0.49-2.21,0.62v0.48h29.09l2.38-9.08l-0.52-0.14
	C172.83,184.23,172.07,185.4,171.32,186.36z"/>
<path d="M212.69,186.53c-0.76-1.08-1.62-2.31-2.59-3.71c-0.97-1.39-1.86-2.69-2.69-3.9c-0.48-0.67-0.97-1.27-1.47-1.81
	c-0.51-0.54-1.03-0.95-1.57-1.24v-0.14c1.05-0.35,2.04-0.78,2.99-1.28c0.95-0.51,1.78-1.12,2.49-1.83c0.71-0.71,1.28-1.54,1.71-2.47
	c0.43-0.93,0.64-1.99,0.64-3.16c0-1.9-0.43-3.48-1.28-4.73c-0.86-1.25-1.98-2.24-3.38-2.97c-1.36-0.73-2.87-1.16-4.51-1.28
	c-1.65-0.13-3.53-0.19-5.65-0.19c-0.86,0-1.97,0-3.33,0c-1.36,0-2.73,0.01-4.09,0.02c-1.36,0.02-2.58,0.02-3.66,0.02
	c-1.05,0-1.7,0-1.95,0v0.48c0.85,0.13,1.58,0.28,2.16,0.45c0.59,0.17,1.12,0.52,1.59,1.02c0.19,0.19,0.34,0.5,0.45,0.93
	c0.11,0.43,0.19,0.9,0.24,1.43c0.05,0.52,0.08,1.08,0.09,1.66c0.02,0.59,0.02,1.17,0.02,1.74v9.27c0,0.86,0,1.78,0,2.76
	c0,0.95-0.01,1.88-0.02,2.78c-0.02,0.9-0.03,1.74-0.05,2.49c-0.02,0.76-0.02,1.36-0.02,1.81c0,0.51-0.02,1.03-0.05,1.57
	c-0.03,0.54-0.07,1.05-0.12,1.52c-0.05,0.48-0.12,0.9-0.21,1.28c-0.1,0.38-0.22,0.67-0.38,0.85c-0.41,0.51-0.98,0.89-1.71,1.14
	c-0.73,0.25-1.49,0.44-2.28,0.57v0.48h15.21v-0.48c-1.3-0.06-2.31-0.31-3.04-0.74c-0.73-0.43-1.22-0.85-1.47-1.26
	c-0.32-0.48-0.49-1.08-0.52-1.81c-0.03-0.73-0.06-1.6-0.1-2.61c-0.03-1.05-0.05-2.33-0.05-3.85c0-1.52,0-3.31,0-5.37
	c0.44,0.03,0.81,0.05,1.09,0.05c0.32,0,0.78,0.06,1.38,0.19c0.82,0.16,1.61,0.56,2.35,1.19c0.74,0.63,1.43,1.32,2.07,2.04
	c0.76,0.89,1.42,1.69,1.97,2.4c0.55,0.71,1.07,1.42,1.54,2.11c0.48,0.7,0.94,1.4,1.4,2.12c0.46,0.71,0.99,1.51,1.59,2.4
	c0.51,0.73,0.88,1.28,1.12,1.64c0.24,0.36,0.43,0.64,0.59,0.83c0.16,0.19,0.3,0.36,0.43,0.5c0.13,0.14,0.33,0.36,0.62,0.64h9.74
	v-0.48c-1.49-0.22-2.79-0.71-3.9-1.47C215,189.38,213.86,188.18,212.69,186.53z M201,174.51c-1.05,0.35-2.13,0.58-3.26,0.69
	c-1.13,0.11-2.34,0.17-3.64,0.17c0-0.25,0-0.86,0-1.81c0-0.98,0-2.12,0-3.42c0-1.3,0.01-2.65,0.02-4.04
	c0.02-1.39,0.04-2.64,0.07-3.75c0.03-0.73,0.05-1.29,0.07-1.69c0.02-0.4,0.03-0.7,0.05-0.93c0.02-0.22,0.04-0.4,0.07-0.55
	c0.03-0.14,0.06-0.31,0.1-0.5c0.22-0.03,0.54-0.06,0.95-0.1c0.41-0.03,0.95-0.05,1.62-0.05c0.92,0,1.8,0.08,2.64,0.24
	c0.84,0.16,1.64,0.41,2.4,0.76c1.52,0.73,2.68,1.71,3.47,2.95c0.79,1.24,1.19,2.65,1.19,4.23c0,0.85-0.11,1.68-0.33,2.47
	c-0.22,0.79-0.56,1.53-1.02,2.21c-0.46,0.68-1.05,1.29-1.78,1.83C202.89,173.76,202.01,174.19,201,174.51z"/>
<path d="M251.33,159.58c-1.43-0.79-2.95-1.29-4.56-1.5c-1.62-0.21-3.47-0.31-5.56-0.31c-0.57,0-1.28,0-2.14,0
	c-0.82,0-1.7,0.01-2.64,0.02c-0.94,0.02-1.88,0.02-2.83,0.02s-1.83,0.01-2.64,0.02c-0.81,0.02-1.51,0.02-2.11,0.02
	c-0.57,0-0.95,0-1.14,0v0.48c0.86,0.13,1.66,0.28,2.4,0.45c0.74,0.17,1.35,0.52,1.83,1.02c0.19,0.19,0.34,0.5,0.45,0.93
	c0.11,0.43,0.19,0.9,0.24,1.43c0.05,0.52,0.08,1.08,0.1,1.66c0.02,0.59,0.02,1.17,0.02,1.74v9.27c0,0.86,0,1.78,0,2.76
	c0,0.95-0.01,1.88-0.02,2.78c-0.02,0.9-0.03,1.74-0.05,2.49c-0.02,0.76-0.02,1.36-0.02,1.81c0,0.51-0.02,1.03-0.05,1.57
	c-0.03,0.54-0.07,1.05-0.12,1.52c-0.05,0.48-0.12,0.9-0.21,1.28c-0.1,0.38-0.22,0.67-0.38,0.85c-0.41,0.51-0.98,0.89-1.71,1.14
	c-0.73,0.25-1.49,0.44-2.28,0.57v0.48h15.21v-0.48c-1.3-0.06-2.31-0.3-3.04-0.71c-0.73-0.41-1.22-0.82-1.47-1.24
	c-0.32-0.48-0.49-1.08-0.52-1.81c-0.03-0.73-0.06-1.6-0.09-2.61c0-0.54-0.01-1.04-0.02-1.5c-0.02-0.46-0.02-0.96-0.02-1.5
	c0-0.54,0-1.16,0-1.85c0-0.73,0-1.6,0-2.61c0.76,0,1.62,0,2.57,0c0.98,0,1.99-0.04,3.02-0.12c1.03-0.08,2.05-0.2,3.07-0.36
	c1.01-0.16,1.96-0.4,2.85-0.71c0.85-0.32,1.69-0.74,2.52-1.26c0.82-0.52,1.54-1.15,2.16-1.88c0.62-0.73,1.12-1.57,1.5-2.52
	c0.38-0.95,0.57-2.01,0.57-3.18c0-1.9-0.46-3.55-1.38-4.94C253.88,161.42,252.72,160.34,251.33,159.58z M249.43,172.91
	c-1.08,1.6-2.63,2.75-4.66,3.45c-0.98,0.35-2.04,0.56-3.18,0.64c-1.14,0.08-2.36,0.12-3.66,0.12c0-0.25,0-0.95,0-2.09s0-2.47,0-3.99
	c0-1.52,0.01-3.07,0.02-4.66c0.02-1.58,0.04-2.93,0.07-4.04c0.03-0.73,0.06-1.29,0.1-1.69c0.03-0.4,0.06-0.7,0.1-0.93
	c0.03-0.22,0.07-0.4,0.12-0.55c0.05-0.14,0.09-0.31,0.12-0.5c0.22-0.03,0.51-0.07,0.88-0.12c0.36-0.05,0.88-0.07,1.54-0.07
	c0.92,0,1.81,0.06,2.66,0.19c0.85,0.13,1.66,0.36,2.42,0.71c1.52,0.73,2.75,1.8,3.68,3.23c0.93,1.43,1.4,3.06,1.4,4.9
	C251.04,169.52,250.5,171.31,249.43,172.91z"/>
<path d="M295.29,186.53c-0.76-1.08-1.62-2.31-2.59-3.71c-0.97-1.39-1.86-2.69-2.68-3.9c-0.48-0.67-0.97-1.27-1.47-1.81
	c-0.51-0.54-1.03-0.95-1.57-1.24v-0.14c1.05-0.35,2.04-0.78,2.99-1.28c0.95-0.51,1.78-1.12,2.49-1.83c0.71-0.71,1.28-1.54,1.71-2.47
	c0.43-0.93,0.64-1.99,0.64-3.16c0-1.9-0.43-3.48-1.28-4.73c-0.86-1.25-1.98-2.24-3.38-2.97c-1.36-0.73-2.87-1.16-4.51-1.28
	s-3.53-0.19-5.66-0.19c-0.85,0-1.96,0-3.33,0c-1.36,0-2.73,0.01-4.09,0.02c-1.36,0.02-2.58,0.02-3.66,0.02c-1.05,0-1.7,0-1.95,0
	v0.48c0.85,0.13,1.58,0.28,2.16,0.45c0.59,0.17,1.12,0.52,1.59,1.02c0.19,0.19,0.34,0.5,0.45,0.93c0.11,0.43,0.19,0.9,0.24,1.43
	c0.05,0.52,0.08,1.08,0.1,1.66c0.02,0.59,0.02,1.17,0.02,1.74v9.27c0,0.86,0,1.78,0,2.76c0,0.95-0.01,1.88-0.02,2.78
	c-0.02,0.9-0.03,1.74-0.05,2.49c-0.02,0.76-0.02,1.36-0.02,1.81c0,0.51-0.02,1.03-0.05,1.57c-0.03,0.54-0.07,1.05-0.12,1.52
	c-0.05,0.48-0.12,0.9-0.21,1.28c-0.1,0.38-0.22,0.67-0.38,0.85c-0.41,0.51-0.98,0.89-1.71,1.14c-0.73,0.25-1.49,0.44-2.28,0.57v0.48
	h15.21v-0.48c-1.3-0.06-2.31-0.31-3.04-0.74c-0.73-0.43-1.22-0.85-1.47-1.26c-0.32-0.48-0.49-1.08-0.52-1.81
	c-0.03-0.73-0.06-1.6-0.09-2.61c-0.03-1.05-0.05-2.33-0.05-3.85c0-1.52,0-3.31,0-5.37c0.44,0.03,0.81,0.05,1.09,0.05
	c0.32,0,0.78,0.06,1.38,0.19c0.82,0.16,1.61,0.56,2.35,1.19c0.75,0.63,1.43,1.32,2.07,2.04c0.76,0.89,1.42,1.69,1.97,2.4
	c0.55,0.71,1.07,1.42,1.54,2.11c0.48,0.7,0.94,1.4,1.4,2.12c0.46,0.71,0.99,1.51,1.59,2.4c0.51,0.73,0.88,1.28,1.12,1.64
	c0.24,0.36,0.43,0.64,0.59,0.83c0.16,0.19,0.3,0.36,0.43,0.5c0.13,0.14,0.33,0.36,0.62,0.64h9.74v-0.48
	c-1.49-0.22-2.79-0.71-3.9-1.47C297.6,189.38,296.46,188.18,295.29,186.53z M283.6,174.51c-1.05,0.35-2.13,0.58-3.26,0.69
	c-1.13,0.11-2.34,0.17-3.64,0.17c0-0.25,0-0.86,0-1.81c0-0.98,0-2.12,0-3.42c0-1.3,0.01-2.65,0.02-4.04
	c0.02-1.39,0.04-2.64,0.07-3.75c0.03-0.73,0.06-1.29,0.07-1.69c0.02-0.4,0.03-0.7,0.05-0.93c0.02-0.22,0.04-0.4,0.07-0.55
	c0.03-0.14,0.06-0.31,0.1-0.5c0.22-0.03,0.54-0.06,0.95-0.1c0.41-0.03,0.95-0.05,1.62-0.05c0.92,0,1.8,0.08,2.64,0.24
	c0.84,0.16,1.64,0.41,2.4,0.76c1.52,0.73,2.68,1.71,3.47,2.95c0.79,1.24,1.19,2.65,1.19,4.23c0,0.85-0.11,1.68-0.33,2.47
	c-0.22,0.79-0.56,1.53-1.02,2.21c-0.46,0.68-1.05,1.29-1.78,1.83C285.48,173.76,284.61,174.19,283.6,174.51z"/>
<path d="M321.1,189.86c-0.25-0.35-0.4-0.95-0.43-1.8c-0.03-0.86-0.05-1.74-0.05-2.66v-10.74c0-0.98,0-1.88,0-2.71
	c0-0.86,0-1.68,0-2.47s0.01-1.58,0.02-2.35c0.02-0.78,0.02-1.56,0.02-2.35c0.03-0.73,0.06-1.5,0.07-2.33
	c0.02-0.82,0.17-1.5,0.45-2.04c0.41-0.76,1-1.27,1.76-1.52c0.76-0.25,1.47-0.43,2.14-0.52v-0.48h-14.21v0.48
	c0.82,0.09,1.56,0.26,2.21,0.5c0.65,0.24,1.2,0.63,1.64,1.16c0.19,0.22,0.33,0.53,0.43,0.93c0.1,0.4,0.17,0.84,0.21,1.33
	c0.05,0.49,0.07,1.02,0.07,1.59c0,0.57,0,1.14,0,1.71v9.27c0,0.86,0,1.78,0,2.76c0,0.95-0.01,1.88-0.02,2.78
	c-0.02,0.9-0.03,1.74-0.05,2.49c-0.02,0.76-0.02,1.36-0.02,1.81c0,0.51-0.01,1.02-0.02,1.54c-0.02,0.52-0.05,1.02-0.1,1.5
	c-0.05,0.47-0.11,0.89-0.19,1.24c-0.08,0.35-0.2,0.62-0.36,0.81c-0.47,0.54-1.05,0.95-1.73,1.24c-0.68,0.28-1.42,0.49-2.21,0.62
	v0.48h14.4v-0.48c-0.67-0.06-1.41-0.24-2.23-0.52S321.48,190.4,321.1,189.86z"/>
<path d="M354.86,173.65c-0.6-0.22-1.18-0.43-1.73-0.62c-0.55-0.19-1.1-0.37-1.63-0.55c-0.54-0.17-1.08-0.36-1.64-0.55
	c-0.55-0.19-1.15-0.41-1.78-0.67c-1.61-0.6-2.92-1.41-3.94-2.42c-1.01-1.01-1.52-2.36-1.52-4.04c0-1.08,0.18-2.04,0.55-2.87
	c0.36-0.84,0.87-1.54,1.52-2.12c0.65-0.57,1.41-1,2.28-1.28c0.87-0.28,1.8-0.43,2.78-0.43c1.24,0,2.36,0.25,3.37,0.76
	c1.01,0.51,1.92,1.16,2.71,1.97c0.79,0.81,1.49,1.73,2.09,2.76c0.6,1.03,1.09,2.07,1.47,3.11h0.52v-8.79h-0.52
	c-0.25,0.38-0.53,0.76-0.83,1.14c-0.3,0.38-0.5,0.57-0.59,0.57c-0.03,0-0.21-0.12-0.55-0.36c-0.33-0.24-0.83-0.5-1.47-0.78
	c-0.65-0.28-1.48-0.55-2.49-0.78c-1.01-0.24-2.23-0.36-3.66-0.36c-1.52,0-2.97,0.2-4.35,0.59c-1.38,0.4-2.6,1.01-3.65,1.83
	c-1.05,0.83-1.89,1.85-2.52,3.09c-0.63,1.24-0.94,2.71-0.94,4.42c0,1.01,0.17,1.97,0.52,2.87c0.35,0.9,0.81,1.73,1.38,2.47
	c0.57,0.75,1.24,1.39,2,1.95c0.76,0.55,1.55,0.99,2.38,1.31c0.73,0.29,1.35,0.52,1.88,0.69c0.52,0.17,1.03,0.35,1.52,0.52
	c0.49,0.18,1.02,0.36,1.59,0.55c0.57,0.19,1.24,0.43,2,0.71s1.47,0.6,2.14,0.95c0.67,0.35,1.24,0.77,1.73,1.26
	c0.49,0.49,0.88,1.07,1.16,1.74c0.29,0.67,0.43,1.44,0.43,2.33c0,2.19-0.73,3.92-2.19,5.2c-1.46,1.28-3.36,1.92-5.7,1.92
	c-0.83,0-1.68-0.14-2.57-0.43c-0.89-0.28-1.6-0.57-2.14-0.85c-0.54-0.29-1.1-0.7-1.69-1.24c-0.59-0.54-1.14-1.16-1.66-1.88
	c-0.52-0.71-1.01-1.47-1.45-2.28c-0.44-0.81-0.81-1.64-1.09-2.5h-0.48l0.14,9.46h0.43c0.25-0.35,0.54-0.71,0.85-1.09
	c0.32-0.38,0.52-0.57,0.62-0.57c0.09,0,0.32,0.11,0.69,0.33c0.36,0.22,0.91,0.47,1.64,0.74c0.73,0.27,1.65,0.5,2.76,0.69
	c1.11,0.19,2.44,0.28,3.99,0.28c1.8,0,3.47-0.21,4.99-0.62c1.52-0.41,2.83-1.05,3.92-1.9c1.09-0.85,1.95-1.88,2.57-3.09
	c0.62-1.2,0.93-2.57,0.93-4.09c0-2.25-0.59-4.13-1.78-5.63C358.67,175.59,357,174.44,354.86,173.65z"/>
<path d="M402.05,186.36c-0.75,0.97-1.51,1.78-2.31,2.45c-0.79,0.67-1.62,1.18-2.47,1.54c-0.85,0.36-1.79,0.61-2.8,0.74
	c-0.92,0.13-1.8,0.21-2.64,0.24c-0.84,0.03-1.53,0.05-2.07,0.05c-1.27,0-2.44-0.1-3.52-0.28c-1.08-0.19-1.76-0.51-2.04-0.95
	c-0.29-0.44-0.47-1.12-0.55-2.02c-0.08-0.9-0.14-1.86-0.17-2.87c0-0.32-0.01-0.71-0.02-1.17c-0.02-0.46-0.02-0.94-0.02-1.45
	c0-0.54,0-1.08,0-1.62s0-1.01,0-1.43c0-0.92,0-1.81,0-2.66c0-0.85,0.03-1.5,0.09-1.95c0.51,0,0.92,0,1.24,0c0.35,0,0.67,0,0.95,0
	c0.32,0,0.63,0.01,0.95,0.02c0.32,0.02,0.71,0.04,1.19,0.07c0.95,0.06,1.78,0.24,2.49,0.52c0.71,0.28,1.32,0.65,1.83,1.09
	c0.57,0.54,1.12,1.35,1.64,2.42c0.52,1.08,0.91,2.12,1.16,3.14h0.57v-14.97H395c-0.19,0.89-0.4,1.69-0.64,2.4
	c-0.24,0.71-0.55,1.34-0.95,1.88c-0.4,0.54-0.91,1-1.54,1.38c-0.63,0.38-1.43,0.68-2.38,0.9c-0.41,0.1-0.93,0.17-1.54,0.21
	c-0.62,0.05-1.24,0.09-1.85,0.12c-0.62,0.03-1.16,0.05-1.64,0.05s-0.79,0-0.95,0c0-0.1,0-0.27,0-0.52c0-0.29-0.01-0.69-0.02-1.21
	c-0.02-0.52-0.02-1.2-0.02-2.02s0-1.84,0-3.04c0-2.09,0.02-3.93,0.07-5.51c0.05-1.58,0.1-2.63,0.17-3.14
	c0.32-0.06,0.83-0.12,1.54-0.17c0.71-0.05,1.4-0.07,2.07-0.07c2.09,0,3.87,0.1,5.32,0.28c1.46,0.19,2.46,0.41,2.99,0.67
	c2.25,1.11,4.66,3.26,7.22,6.46l0.48-0.24l-3.23-7.84h-26.23v0.48c0.86,0.13,1.55,0.26,2.09,0.4c0.54,0.14,1.05,0.47,1.52,0.97
	c0.19,0.19,0.34,0.5,0.45,0.93c0.11,0.43,0.19,0.91,0.24,1.45c0.05,0.54,0.08,1.11,0.1,1.71c0.02,0.6,0.02,1.19,0.02,1.76v9.27
	c0,0.86,0,1.78,0,2.76c0,0.95-0.01,1.88-0.02,2.78c-0.02,0.9-0.03,1.74-0.05,2.49c-0.02,0.76-0.02,1.36-0.02,1.81
	c0,0.51-0.02,1.02-0.05,1.54c-0.03,0.52-0.09,1.02-0.17,1.5c-0.08,0.47-0.17,0.89-0.26,1.26c-0.1,0.36-0.22,0.64-0.38,0.83
	c-0.44,0.51-1.01,0.9-1.69,1.19c-0.68,0.28-1.42,0.49-2.21,0.62v0.48h29.09l2.38-9.08l-0.52-0.14
	C403.57,184.23,402.8,185.4,402.05,186.36z"/>
<path d="M432.61,173.65c-0.6-0.22-1.18-0.43-1.73-0.62c-0.55-0.19-1.1-0.37-1.63-0.55c-0.54-0.17-1.08-0.36-1.64-0.55
	c-0.55-0.19-1.15-0.41-1.78-0.67c-1.61-0.6-2.92-1.41-3.94-2.42c-1.01-1.01-1.52-2.36-1.52-4.04c0-1.08,0.18-2.04,0.55-2.87
	c0.36-0.84,0.87-1.54,1.52-2.12c0.65-0.57,1.41-1,2.28-1.28c0.87-0.28,1.8-0.43,2.78-0.43c1.24,0,2.36,0.25,3.37,0.76
	c1.01,0.51,1.92,1.16,2.71,1.97c0.79,0.81,1.49,1.73,2.09,2.76c0.6,1.03,1.09,2.07,1.47,3.11h0.52v-8.79h-0.52
	c-0.25,0.38-0.53,0.76-0.83,1.14c-0.3,0.38-0.5,0.57-0.59,0.57c-0.03,0-0.21-0.12-0.55-0.36c-0.33-0.24-0.83-0.5-1.47-0.78
	c-0.65-0.28-1.48-0.55-2.49-0.78c-1.01-0.24-2.23-0.36-3.66-0.36c-1.52,0-2.97,0.2-4.35,0.59c-1.38,0.4-2.6,1.01-3.65,1.83
	c-1.05,0.83-1.89,1.85-2.52,3.09c-0.63,1.24-0.94,2.71-0.94,4.42c0,1.01,0.17,1.97,0.52,2.87c0.35,0.9,0.81,1.73,1.38,2.47
	c0.57,0.75,1.24,1.39,2,1.95c0.76,0.55,1.55,0.99,2.38,1.31c0.73,0.29,1.35,0.52,1.88,0.69c0.52,0.17,1.03,0.35,1.52,0.52
	c0.49,0.18,1.02,0.36,1.59,0.55c0.57,0.19,1.24,0.43,2,0.71s1.47,0.6,2.14,0.95c0.67,0.35,1.24,0.77,1.73,1.26
	c0.49,0.49,0.88,1.07,1.16,1.74c0.29,0.67,0.43,1.44,0.43,2.33c0,2.19-0.73,3.92-2.19,5.2c-1.46,1.28-3.36,1.92-5.7,1.92
	c-0.83,0-1.68-0.14-2.57-0.43c-0.89-0.28-1.6-0.57-2.14-0.85c-0.54-0.29-1.1-0.7-1.69-1.24c-0.59-0.54-1.14-1.16-1.66-1.88
	c-0.52-0.71-1.01-1.47-1.45-2.28c-0.44-0.81-0.81-1.64-1.09-2.5h-0.48l0.14,9.46h0.43c0.25-0.35,0.54-0.71,0.85-1.09
	s0.52-0.57,0.62-0.57c0.09,0,0.32,0.11,0.69,0.33c0.36,0.22,0.91,0.47,1.64,0.74c0.73,0.27,1.65,0.5,2.76,0.69
	c1.11,0.19,2.44,0.28,3.99,0.28c1.8,0,3.47-0.21,4.99-0.62c1.52-0.41,2.83-1.05,3.92-1.9c1.09-0.85,1.95-1.88,2.57-3.09
	c0.62-1.2,0.93-2.57,0.93-4.09c0-2.25-0.59-4.13-1.78-5.63C436.42,175.59,434.76,174.44,432.61,173.65z"/>
<path d="M268.58,76.17c-0.02,0.03-0.04,0.06-0.05,0.09c0,0.06,0,0.11,0.01,0.17L268.58,76.17z"/>
<path d="M180.99,63.05l0.02-0.12c0-0.01,0-0.03,0-0.05L180.99,63.05z"/>
<path d="M183.79,28.46c0,0.03-0.01,0.06-0.01,0.09c0,0.06,0,0.11,0,0.17L183.79,28.46z"/>
<path d="M258.31,28.75c0.02,0.7-0.24,1.4-0.73,1.82c-0.47,0.44-1.14,0.58-1.79,0.6c-1.31,0.04-2.65-0.33-3.93-0.78
	c-1.26-0.44-2.65-0.98-3.99-1.39c-1.35-0.44-2.72-0.8-4.09-1.16c-0.48-0.12-0.97-0.23-1.46-0.34c-2.49-2.13-5.33-3.86-8.3-5.3
	c-3.61-1.75-7.51-2.93-11.5-3.58c-4-0.59-8.1-0.6-12.07,0.07c-1.99,0.34-3.97,0.84-5.84,1.7c-0.93,0.42-1.82,0.98-2.6,1.65
	c-0.66,0.59-1.25,1.33-1.49,2.18c-0.94-0.06-1.87-0.17-2.76-0.42c-0.64-0.18-1.26-0.46-1.72-0.92c-0.48-0.45-0.74-1.13-0.73-1.84
	c-0.14,0.69-0.03,1.47,0.42,2.09c0.44,0.62,1.1,1.04,1.77,1.35c1.35,0.61,2.79,0.87,4.2,1.08c2.84,0.37,5.67,0.44,8.48,0.5
	c2.81,0.09,5.57,0.09,8.31,0.39c2.76,0.24,5.54,0.54,8.3,0.91c5.54,0.68,11.06,1.5,16.54,2.48c2.76,0.5,5.41,1.09,8.18,1.79
	c1.41,0.28,2.88,0.53,4.37,0.26c0.72-0.14,1.5-0.43,1.98-1.05C258.35,30.22,258.46,29.43,258.31,28.75z M227.13,24.74
	c-2.8-0.33-5.62-0.62-8.45-0.79c-2.86-0.16-5.71-0.11-8.51,0.05c-2.81,0.11-5.59,0.32-8.35,0.27c-0.39-0.01-0.78-0.02-1.17-0.04
	c0.44-0.7,1.12-1.19,1.8-1.59c0.83-0.44,1.7-0.81,2.62-1.03c1.82-0.52,3.73-0.72,5.63-0.87c3.84-0.23,7.66-0.11,11.42,0.49
	c3.77,0.56,7.48,1.57,11.11,2.86c2.3,0.85,4.56,1.8,6.8,2.87C235.77,26.01,231.46,25.31,227.13,24.74z"/>
<path d="M267.21,53.59c0.1,0.05,0.2,0.11,0.31,0.17c-0.03-0.21-0.06-0.42-0.09-0.62L267.21,53.59z"/>
<path d="M292.97,72.39c-0.34-0.63-0.7-1.24-1.13-1.81c-0.41-0.58-0.8-1.17-1.23-1.74c-0.92-1.07-1.77-2.22-2.79-3.18
	c-1.93-2.07-4.08-3.85-6.27-5.6c-4.32-3.38-9.53-6.97-14.47-9.46c-0.83-6.47-1.88-13.41-3.19-19.95c-0.11-0.67-0.22-1.33-0.32-2
	c-0.56-2.66-1.84-5.06-3.43-7.18c-1.6-2.13-3.6-3.95-5.82-5.42c-2.23-1.47-4.72-2.55-7.3-3.21c-2.61-0.63-5.21-0.87-7.81-1.11
	c-5.2-0.38-10.4-0.41-15.59-0.32c-5.19,0.11-10.38,0.37-15.56,0.89c-1.3,0.13-2.59,0.27-3.88,0.45c-1.29,0.16-2.59,0.35-3.88,0.59
	c-2.58,0.51-5.17,0.99-7.75,2.1c-2.55,1.07-4.88,2.89-6.49,5.23c-1.54,2.34-2.37,5.01-2.26,7.89c0-0.03,0.01-0.06,0.01-0.09
	l-0.01,0.26c0-0.06,0-0.11,0-0.17c-0.38,2.72-0.73,5.44-1.08,8.16c-5.35,0.67-10.59,2.1-15.46,4.49c-2.51,1.27-4.93,2.83-6.96,4.85
	c-2.02,2.06-3.62,4.41-4.91,6.96c-1.27,2.55-2.13,5.32-2.46,8.17c-0.33,2.85-0.11,5.76,0.57,8.54c0.74,2.78,1.95,5.38,3.38,7.84
	c1.55,2.38,3.23,4.68,5.22,6.7c3.29,3.5,7.02,6.52,10.97,9.2c-2.32,1.15-4.34,2.54-6.04,4.21c-1.53,1.48-2.79,3.05-3.8,4.71
	c-1.01,1.66-1.79,3.3-2.35,4.91c-0.56,1.61-0.95,3.15-1.18,4.61c-0.22,1.46-0.34,2.75-0.34,3.87c0,3.81,0.62,7.26,1.85,10.33
	c1.23,3.07,3.01,5.68,5.32,7.8c2.31,2.13,5.15,3.75,8.51,4.84c3.36,1.1,7.18,1.65,11.44,1.65c2.15,0,4.31-0.23,6.46-0.67
	c2.15-0.45,4.12-1,5.89-1.65c1.77-0.65,3.27-1.29,4.51-1.92c1.23-0.63,2.01-1.08,2.32-1.35v-9.82c0-1.03,0.02-2.06,0.07-3.1
	c0.04-1.03,0.22-1.79,0.54-2.29c0.4-0.63,1.05-1.09,1.95-1.38c0.9-0.29,1.73-0.48,2.49-0.57v-0.67h-19.72v0.67
	c2.6,0.22,4.42,0.92,5.45,2.09c0.76,0.81,1.22,1.84,1.38,3.09c0.16,1.26,0.24,2.67,0.24,4.24c0,1.57-0.09,3.1-0.27,4.58
	c-0.18,1.48-0.45,2.51-0.81,3.1c-1.08,1.66-2.55,2.86-4.41,3.6c-1.86,0.74-3.87,1.11-6.02,1.11c-3.01,0-5.68-0.57-8.01-1.72
	c-2.33-1.14-4.31-2.75-5.92-4.81c-1.61-2.06-2.85-4.54-3.7-7.43c-0.85-2.89-1.28-6.09-1.28-9.59c0-3.18,0.45-6.22,1.35-9.12
	c0.9-2.89,2.17-5.45,3.84-7.67c1.02-1.37,2.2-2.55,3.5-3.58c4.41,2.71,9.02,5.06,13.75,7.12c5.13,2.25,10.43,4.07,15.79,5.67
	c5.36,1.6,10.81,2.89,16.31,3.89c5.5,1.01,11.04,1.77,16.62,2.17c4.29,0.33,8.61,0.44,12.93,0.23c-1.21,2.79-2.39,5.51-3.53,8.15
	c-1.17,2.69-2.22,5.09-3.16,7.2c-1.03,2.29-1.91,4.01-2.62,5.18c-0.72,1.17-1.23,1.91-1.55,2.22c-0.14,0.18-0.62,0.52-1.45,1.01
	c-0.83,0.49-1.83,0.81-2.99,0.94v0.74h14.33v-0.67c-0.58-0.09-1.2-0.19-1.85-0.3c-0.65-0.11-1.26-0.29-1.82-0.54
	c-0.56-0.25-1.02-0.56-1.38-0.94c-0.36-0.38-0.54-0.86-0.54-1.45c0-0.99,0.47-2.69,1.41-5.11c0.63-1.57,1.26-3.13,1.88-4.68
	c0.63-1.55,1.28-3.17,1.95-4.88h17.9c0.67,1.75,1.3,3.43,1.88,5.05c0.58,1.62,1.1,3.09,1.55,4.41c0.45,1.32,0.8,2.45,1.04,3.36
	c0.25,0.92,0.37,1.58,0.37,1.99c0,0.63-0.21,1.14-0.64,1.55c-0.43,0.4-0.92,0.72-1.48,0.94c-0.56,0.23-1.1,0.38-1.61,0.47
	c-0.52,0.09-0.84,0.13-0.98,0.13v0.67h19.65v-0.81c-1.03-0.05-1.93-0.25-2.69-0.61c-0.76-0.36-1.4-0.77-1.92-1.25
	c-0.52-0.47-0.93-0.93-1.24-1.38c-0.31-0.45-0.52-0.76-0.61-0.94c-0.54-1.17-1.02-2.21-1.45-3.13c-0.43-0.92-0.89-2.07-1.38-3.47
	c-1.08-2.83-2.15-5.69-3.23-8.58c-1.07-2.86-2.16-5.83-3.29-8.89c2.61-0.9,5.2-1.89,7.66-3.19c2.53-1.27,4.93-2.8,7.15-4.6
	c4.49-3.51,7.86-8.64,8.94-14.3C297.11,83.28,295.91,77.26,292.97,72.39z M183.68,39.5c0.71-3.57,2.34-13.27,2.7-14.37
	c0.37-1.12,0.92-2.16,1.59-3.11c1.4-1.87,3.36-3.27,5.59-4.15c2.19-0.92,4.72-1.38,7.2-1.84c2.5-0.44,5.03-0.82,7.57-1.11
	c10.17-1.19,20.5-1.79,30.73-1.32c2.54,0.18,5.1,0.37,7.53,0.9c2.43,0.56,4.77,1.52,6.88,2.85c2.11,1.33,4.02,3,5.57,4.96
	c1.53,1.96,2.81,4.2,3.38,6.59c0.68,3.55,1.36,7.1,2.05,10.67c1.19,7.34,2.1,14.69,2.76,20.92c-0.29,0.38-0.61,0.74-0.96,1.07
	c-0.7,0.66-1.49,1.23-2.32,1.74c-1.67,1-3.48,1.75-5.35,2.34c-3.74,1.18-7.65,1.76-11.56,2.09c-7.85,0.62-15.77,0.35-23.62-0.38
	c-4.32-0.4-8.63-1-12.86-1.86c-1.76-1.77-6.9-3.44-8.87-3.92c-1.7-0.41-4.29-1.02-6.25-0.76c-1.9-0.88-3.74-1.87-5.46-3.02
	c-1.58-1.07-3.05-2.28-4.32-3.65c-0.64-0.68-1.21-1.41-1.71-2.17c-0.25-0.38-0.47-0.77-0.67-1.16c-0.19-0.37-0.38-0.85-0.45-1.1
	l-0.75-2.79c0.15-0.69,0.31-1.38,0.46-2.08C182.92,43.06,183.33,41.29,183.68,39.5z M192.81,62.77c-0.61,2.31-2.2,8.84-1.74,12.72
	c-1.63-0.84-3.18-1.78-4.56-2.89c-1.53-1.25-2.85-2.73-3.82-4.4c-0.47-0.84-0.87-1.72-1.17-2.63c-0.29-0.86-0.49-1.87-0.52-2.64
	l-0.02,0.12l0.01-0.17c0,0.01,0,0.03,0,0.05l1.3-8.99c0.48,0.66,0.99,1.3,1.54,1.88c1.44,1.53,3.07,2.84,4.78,3.98
	c1.41,0.93,2.87,1.75,4.37,2.49C192.92,62.44,192.85,62.6,192.81,62.77z M194.09,63.11c0.02-0.09,0.06-0.17,0.1-0.24
	c0.33-0.6,1.19-0.81,2.25-0.81c0.91,0,1.96,0.16,2.92,0.34c0.78,0.15,1.5,0.32,2.03,0.45c1.56,0.38,3.41,1.01,4.98,1.68
	c1.83,0.78,3.29,1.62,3.49,2.17c0.06,0.18,0.12,0.5,0.17,0.94c0.37,3.12,0.42,11.98-0.33,13.94c-0.04,0.1-0.08,0.19-0.12,0.26
	c-2.48-0.23-15.63-3.72-16.66-4.8c-0.18-0.19-0.31-0.48-0.41-0.85C191.85,73.8,192.78,68.05,194.09,63.11z M180.36,49.8l-1.96,12.87
	l-0.02,0.11l0,0.06c0.24,4.94,3,8.95,6.49,11.78c3.56,2.8,7.6,4.46,11.65,5.91c8.14,2.79,16.55,4.36,24.98,5.48
	c8.44,1.05,16.95,1.57,25.48,1.24c4.26-0.17,8.62-0.8,12.68-2.36c3.95-1.64,7.74-4.13,9.87-8.12l0.13-0.01
	c0-0.01-0.01-0.09-0.01-0.2l0.01-0.03l-0.01-0.15c-0.21-2.93-0.27-5.89-0.55-8.79c-0.17-1.71-0.54-4.45-0.78-6.18
	c-0.15-1.41-0.31-2.88-0.48-4.41c-0.09-1.08-0.22-2.35-0.34-3.23c4.44,2.39,8.67,5.38,12.54,8.64c3.94,3.37,7.74,7.04,10.27,11.54
	c1.26,2.23,2.2,4.65,2.55,7.17c0.36,2.52,0.09,5.1-0.73,7.51c-1.66,4.84-5.14,8.94-9.32,11.89c-3.71,2.65-7.89,4.6-12.23,6.04
	c-0.57,0.19-1.15,0.37-1.73,0.54c-1.85,0.55-3.72,1.02-5.62,1.41c-2.65,0.54-5.33,0.93-8.03,1.18c-0.49,0.05-0.99,0.09-1.48,0.13
	c-0.05,0-0.1,0.01-0.15,0.01c-5.18,0.41-10.39,0.35-15.57-0.11c-2.59-0.16-5.17-0.54-7.76-0.83c-2.57-0.41-5.15-0.75-7.7-1.27
	c-5.12-0.92-10.19-2.13-15.19-3.6c-0.42-0.12-0.84-0.26-1.26-0.38c-0.75-0.22-1.5-0.45-2.25-0.69c-3.8-1.21-7.54-2.58-11.2-4.14
	c-4.08-1.73-8.09-3.68-11.95-5.87c-0.8-0.46-1.61-0.91-2.4-1.39c-4.3-2.61-8.39-5.56-12.1-8.95c-1.86-1.79-3.68-3.64-5.14-5.76
	c-1.51-2.08-2.76-4.35-3.53-6.79c-0.79-2.43-1.13-5-0.95-7.54c0.16-2.55,0.82-5.06,1.81-7.43c0.99-2.36,2.24-4.68,3.87-6.62
	c1.65-1.96,3.74-3.53,5.99-4.78c4.34-2.38,9.21-3.81,14.13-4.46c0,0.03-0.01,0.06-0.01,0.09c-0.1,0.74-0.19,1.49-0.28,2.23
	l0.16-1.33L180.36,49.8z M268.44,73.43c0.03,0.94,0.05,1.88,0.09,2.83c0.02-0.03,0.04-0.06,0.05-0.09l-0.05,0.26
	c0-0.06,0-0.11-0.01-0.17c-0.91,1.66-2.4,3.15-4,4.31c-1.65,1.2-3.49,2.12-5.41,2.84c-3.88,1.39-8.01,1.91-12.19,1.99
	c-8.38,0.17-16.79-0.58-25.11-1.71c-3.63-0.51-7.25-1.11-10.84-1.85c0.9-2.89,0.71-10.51,0.37-13.96c3.95,0.67,7.94,1.1,11.92,1.39
	c7.95,0.53,15.96,0.75,23.92-0.19c3.97-0.48,7.93-1.2,11.73-2.54c1.89-0.68,3.75-1.49,5.44-2.62c0.84-0.56,1.64-1.2,2.35-1.93
	c0.23-0.23,0.41-0.49,0.61-0.75C267.85,66.36,268.22,70.66,268.44,73.43z M250.98,120.07c0.8-1.96,1.55-3.81,2.26-5.57
	c0.77-0.05,1.55-0.09,2.32-0.16c3.16-0.29,6.31-0.75,9.43-1.4c0.14,0.36,0.28,0.71,0.42,1.07c0.79,2.02,1.56,4.04,2.32,6.06H250.98z
	 M294.47,88.63c-1.06,5.28-4.21,9.98-8.49,13.28c-2.12,1.68-4.44,3.14-6.89,4.33c-2.39,1.24-4.93,2.2-7.48,3.08
	c-0.03,0.01-0.06,0.02-0.09,0.03c-2.36,0.76-4.77,1.37-7.21,1.86c-2.94,0.59-5.92,1.02-8.91,1.28c-0.46,0.04-2.38,0.16-2.89,0.19
	c-4.53,0.25-9.08,0.15-13.61-0.21c-5.5-0.41-10.99-1.18-16.41-2.19c-5.44-0.97-10.83-2.23-16.12-3.79c-0.09-0.03-1-0.31-1.37-0.42
	c-4.83-1.46-9.6-3.11-14.22-5.12c-4.41-1.91-8.74-4.08-12.87-6.55c-0.98-0.59-1.95-1.19-2.91-1.82c-4.22-2.76-8.18-5.87-11.69-9.47
	c-1.94-1.93-3.56-4.13-5.07-6.38c-1.38-2.33-2.56-4.78-3.27-7.38c-1.39-5.21-0.77-10.85,1.63-15.71c1.17-2.43,2.7-4.75,4.55-6.69
	c1.88-1.94,4.17-3.47,6.59-4.74c4.6-2.37,9.7-3.86,14.85-4.62c-0.05,0.35-0.09,0.71-0.14,1.06c-5.06,0.6-10.03,1.98-14.56,4.39
	c-2.33,1.25-4.51,2.85-6.26,4.88c-1.75,2.05-3.03,4.38-4.09,6.81c-1.04,2.44-1.73,5.05-1.91,7.72c-0.19,2.67,0.15,5.37,0.97,7.91
	c0.79,2.56,2.09,4.93,3.64,7.08c1.51,2.2,3.36,4.1,5.26,5.94c3.51,3.23,7.34,6.05,11.35,8.57c0.86,0.54,1.72,1.06,2.59,1.57
	c4.11,2.4,8.4,4.51,12.76,6.39c4.01,1.73,8.11,3.23,12.28,4.54c0.54,0.17,2.24,0.7,2.54,0.79c5.03,1.5,10.14,2.75,15.3,3.7
	c2.57,0.52,5.18,0.85,7.77,1.26c2.61,0.28,5.21,0.66,7.83,0.81c5.08,0.43,10.2,0.47,15.3,0.07c0.15-0.01,1.15-0.09,1.5-0.12
	c3.01-0.28,6.01-0.71,8.97-1.34c1.86-0.39,3.7-0.86,5.51-1.41c0.6-0.18,1.2-0.37,1.79-0.57c4.41-1.48,8.66-3.49,12.46-6.23
	c4.31-3.07,7.93-7.33,9.65-12.43c0.85-2.54,1.12-5.3,0.73-7.95c-0.38-2.66-1.38-5.2-2.7-7.5c-2.67-4.63-6.59-8.3-10.6-11.65
	c-4.03-3.3-8.45-6.35-13.1-8.75c-0.06-0.39-0.1-0.78-0.16-1.17c4.81,2.51,9.38,5.58,13.6,9.01c2.12,1.76,4.23,3.57,6.06,5.6
	c0.98,0.96,1.77,2.08,2.65,3.12c0.4,0.55,0.76,1.13,1.15,1.69c0.4,0.55,0.74,1.14,1.05,1.74C294.51,77.75,295.56,83.37,294.47,88.63
	z"/>
</svg>
